# Blender v3.0.0 OBJ File: 'arrowbutton.blend'
# www.blender.org
mtllib arrow_button_f.mtl
o Cube_Cube.001
v 3.670921 0.105915 1.099429
v 3.670921 2.063717 1.099429
v 3.670921 0.105915 1.022854
v 3.670921 2.063717 1.022854
v 5.269365 0.105915 1.099429
v 5.269005 2.063727 1.100231
v 5.269365 0.105915 1.022854
v 5.269726 2.063708 1.022052
v 4.379990 0.442540 1.111425
v 4.379990 1.428578 1.111425
v 4.379990 0.442540 1.031133
v 4.379990 1.428578 1.031133
v 4.574127 0.442540 1.111425
v 4.574127 1.428578 1.111425
v 4.574127 0.442540 1.031133
v 4.574127 1.428578 1.031133
v 4.478378 1.356475 1.091256
v 4.513670 1.356475 1.091811
v 4.547606 1.356475 1.093455
v 4.578881 1.356475 1.096124
v 4.606295 1.356475 1.099716
v 4.628792 1.356475 1.104093
v 4.645509 1.356475 1.109087
v 4.655803 1.356475 1.114505
v 4.659279 1.356475 1.120140
v 4.655803 1.356475 1.125775
v 4.645509 1.356475 1.131193
v 4.628792 1.356475 1.136186
v 4.606295 1.356475 1.140563
v 4.578881 1.356475 1.144156
v 4.547606 1.356475 1.146825
v 4.513670 1.356475 1.148468
v 4.478378 1.356475 1.149023
v 4.443086 1.356475 1.148468
v 4.409151 1.356475 1.146825
v 4.377875 1.356475 1.144156
v 4.350462 1.356475 1.140563
v 4.327965 1.356475 1.136186
v 4.311248 1.356475 1.131193
v 4.300953 1.356475 1.125775
v 4.297477 1.356475 1.120140
v 4.300953 1.356475 1.114505
v 4.311248 1.356475 1.109087
v 4.327965 1.356475 1.104093
v 4.350462 1.356475 1.099716
v 4.377875 1.356475 1.096124
v 4.409151 1.356475 1.093455
v 4.443086 1.356475 1.091811
v 4.478378 1.868928 1.120140
vt 0.375000 0.000000
vt 0.625000 0.000000
vt 0.625000 0.250000
vt 0.375000 0.250000
vt 0.625000 0.500000
vt 0.375000 0.500000
vt 0.625000 0.750000
vt 0.375000 0.750000
vt 0.625000 1.000000
vt 0.375000 1.000000
vt 0.125000 0.500000
vt 0.125000 0.750000
vt 0.875000 0.500000
vt 0.875000 0.750000
vt 0.375000 0.000000
vt 0.625000 0.000000
vt 0.625000 0.250000
vt 0.375000 0.250000
vt 0.625000 0.500000
vt 0.375000 0.500000
vt 0.625000 0.750000
vt 0.375000 0.750000
vt 0.625000 1.000000
vt 0.375000 1.000000
vt 0.125000 0.500000
vt 0.125000 0.750000
vt 0.875000 0.500000
vt 0.875000 0.750000
vt 0.250000 0.490000
vt 0.250000 0.250000
vt 0.296822 0.485388
vt 0.341844 0.471731
vt 0.383337 0.449553
vt 0.419706 0.419706
vt 0.449553 0.383337
vt 0.471731 0.341844
vt 0.485388 0.296822
vt 0.490000 0.250000
vt 0.485388 0.203178
vt 0.471731 0.158156
vt 0.449553 0.116663
vt 0.419706 0.080294
vt 0.383337 0.050447
vt 0.341844 0.028269
vt 0.296822 0.014612
vt 0.250000 0.010000
vt 0.203178 0.014612
vt 0.158156 0.028269
vt 0.116663 0.050447
vt 0.080294 0.080294
vt 0.050447 0.116663
vt 0.028269 0.158156
vt 0.014612 0.203178
vt 0.010000 0.250000
vt 0.014612 0.296822
vt 0.028269 0.341844
vt 0.050447 0.383337
vt 0.080294 0.419706
vt 0.116663 0.449553
vt 0.158156 0.471731
vt 0.750000 0.490000
vt 0.796822 0.485388
vt 0.841844 0.471731
vt 0.883337 0.449553
vt 0.919706 0.419706
vt 0.949553 0.383337
vt 0.971731 0.341844
vt 0.985388 0.296822
vt 0.990000 0.250000
vt 0.985388 0.203178
vt 0.971731 0.158156
vt 0.949553 0.116663
vt 0.919706 0.080294
vt 0.883337 0.050447
vt 0.841844 0.028269
vt 0.796822 0.014612
vt 0.750000 0.010000
vt 0.703178 0.014612
vt 0.658156 0.028269
vt 0.616663 0.050447
vt 0.580294 0.080294
vt 0.550447 0.116663
vt 0.528269 0.158156
vt 0.514612 0.203178
vt 0.510000 0.250000
vt 0.514612 0.296822
vt 0.528269 0.341844
vt 0.550447 0.383337
vt 0.580294 0.419706
vt 0.616663 0.449553
vt 0.658156 0.471731
vt 0.703178 0.485388
vt 0.203178 0.485388
vn -1.0000 0.0000 0.0000
vn -0.0003 -0.0002 -1.0000
vn 1.0000 0.0000 0.0047
vn -0.0003 -0.0002 1.0000
vn 0.0000 -1.0000 0.0000
vn 0.0000 1.0000 -0.0001
vn 0.0000 0.0000 -1.0000
vn 1.0000 0.0000 0.0000
vn 0.0000 0.0000 1.0000
vn 0.0000 1.0000 0.0000
vn 0.0157 0.0563 -0.9983
vn 0.0483 0.0584 -0.9971
vn 0.0849 0.0632 -0.9944
vn 0.1296 0.0718 -0.9890
vn 0.1903 0.0865 -0.9779
vn 0.2844 0.1133 -0.9520
vn 0.4591 0.1685 -0.8723
vn 0.8151 0.2877 -0.5028
vn 0.8151 0.2877 0.5028
vn 0.4591 0.1685 0.8723
vn 0.2844 0.1133 0.9520
vn 0.1903 0.0865 0.9779
vn 0.1296 0.0718 0.9890
vn 0.0849 0.0632 0.9944
vn 0.0483 0.0584 0.9971
vn 0.0157 0.0563 0.9983
vn -0.0157 0.0563 0.9983
vn -0.0483 0.0584 0.9971
vn -0.0849 0.0632 0.9944
vn -0.1296 0.0718 0.9890
vn -0.1903 0.0865 0.9779
vn -0.2844 0.1133 0.9520
vn -0.4591 0.1685 0.8723
vn -0.8151 0.2877 0.5028
vn -0.8151 0.2877 -0.5028
vn -0.4591 0.1685 -0.8723
vn -0.2844 0.1133 -0.9520
vn -0.1903 0.0865 -0.9779
vn -0.1296 0.0718 -0.9890
vn -0.0849 0.0632 -0.9944
vn -0.0483 0.0584 -0.9971
vn -0.0157 0.0563 -0.9983
usemtl Material.002
s off
f 1/1/1 2/2/1 4/3/1 3/4/1
f 3/4/2 4/3/2 8/5/2 7/6/2
f 7/6/3 8/5/3 6/7/3 5/8/3
f 5/8/4 6/7/4 2/9/4 1/10/4
f 3/11/5 7/6/5 5/8/5 1/12/5
f 8/5/6 4/13/6 2/14/6 6/7/6
usemtl Material.001
f 9/15/1 10/16/1 12/17/1 11/18/1
f 11/18/7 12/17/7 16/19/7 15/20/7
f 15/20/8 16/19/8 14/21/8 13/22/8
f 13/22/9 14/21/9 10/23/9 9/24/9
f 11/25/5 15/20/5 13/22/5 9/26/5
f 16/19/10 12/27/10 10/28/10 14/21/10
f 17/29/11 49/30/11 18/31/11
f 18/31/12 49/30/12 19/32/12
f 19/32/13 49/30/13 20/33/13
f 20/33/14 49/30/14 21/34/14
f 21/34/15 49/30/15 22/35/15
f 22/35/16 49/30/16 23/36/16
f 23/36/17 49/30/17 24/37/17
f 24/37/18 49/30/18 25/38/18
f 25/38/19 49/30/19 26/39/19
f 26/39/20 49/30/20 27/40/20
f 27/40/21 49/30/21 28/41/21
f 28/41/22 49/30/22 29/42/22
f 29/42/23 49/30/23 30/43/23
f 30/43/24 49/30/24 31/44/24
f 31/44/25 49/30/25 32/45/25
f 32/45/26 49/30/26 33/46/26
f 33/46/27 49/30/27 34/47/27
f 34/47/28 49/30/28 35/48/28
f 35/48/29 49/30/29 36/49/29
f 36/49/30 49/30/30 37/50/30
f 37/50/31 49/30/31 38/51/31
f 38/51/32 49/30/32 39/52/32
f 39/52/33 49/30/33 40/53/33
f 40/53/34 49/30/34 41/54/34
f 41/54/35 49/30/35 42/55/35
f 42/55/36 49/30/36 43/56/36
f 43/56/37 49/30/37 44/57/37
f 44/57/38 49/30/38 45/58/38
f 45/58/39 49/30/39 46/59/39
f 46/59/40 49/30/40 47/60/40
f 17/61/5 18/62/5 19/63/5 20/64/5 21/65/5 22/66/5 23/67/5 24/68/5 25/69/5 26/70/5 27/71/5 28/72/5 29/73/5 30/74/5 31/75/5 32/76/5 33/77/5 34/78/5 35/79/5 36/80/5 37/81/5 38/82/5 39/83/5 40/84/5 41/85/5 42/86/5 43/87/5 44/88/5 45/89/5 46/90/5 47/91/5 48/92/5
f 47/60/41 49/30/41 48/93/41
f 48/93/42 49/30/42 17/29/42
